<svg id="visual" viewBox="0 0 1200 675" width="1200" height="675" xmlns="http://www.w3.org/2000/svg" xmlns:xlink="http://www.w3.org/1999/xlink" version="1.1"><rect width="1200" height="675" fill="#001829"></rect><g><g transform="translate(660 220)"><path d="M0 -63L34 -53L57.3 -26.2L62.3 9L47.6 41.2L17.7 60.4L-17.7 60.4L-47.6 41.2L-62.3 9L-57.3 -26.2L-34 -53Z" fill="#297EA6"></path></g><g transform="translate(456 525)"><path d="M0 -59L31.9 -49.6L53.7 -24.5L58.4 8.4L44.6 38.6L16.6 56.6L-16.6 56.6L-44.6 38.6L-58.4 8.4L-53.7 -24.5L-31.9 -49.6Z" fill="#297EA6"></path></g><g transform="translate(1059 255)"><path d="M0 -59L31.9 -49.6L53.7 -24.5L58.4 8.4L44.6 38.6L16.6 56.6L-16.6 56.6L-44.6 38.6L-58.4 8.4L-53.7 -24.5L-31.9 -49.6Z" fill="#297EA6"></path></g><g transform="translate(1042 466)"><path d="M0 -53L28.7 -44.6L48.2 -22L52.5 7.5L40.1 34.7L14.9 50.9L-14.9 50.9L-40.1 34.7L-52.5 7.5L-48.2 -22L-28.7 -44.6Z" fill="#297EA6"></path></g><g transform="translate(230 646)"><path d="M0 -46L24.9 -38.7L41.8 -19.1L45.5 6.5L34.8 30.1L13 44.1L-13 44.1L-34.8 30.1L-45.5 6.5L-41.8 -19.1L-24.9 -38.7Z" fill="#297EA6"></path></g><g transform="translate(672 505)"><path d="M0 -44L23.8 -37L40 -18.3L43.6 6.3L33.3 28.8L12.4 42.2L-12.4 42.2L-33.3 28.8L-43.6 6.3L-40 -18.3L-23.8 -37Z" fill="#297EA6"></path></g><g transform="translate(136 252)"><path d="M0 -20L10.8 -16.8L18.2 -8.3L19.8 2.8L15.1 13.1L5.6 19.2L-5.6 19.2L-15.1 13.1L-19.8 2.8L-18.2 -8.3L-10.8 -16.8Z" fill="#297EA6"></path></g><g transform="translate(53 113)"><path d="M0 -17L9.2 -14.3L15.5 -7.1L16.8 2.4L12.8 11.1L4.8 16.3L-4.8 16.3L-12.8 11.1L-16.8 2.4L-15.5 -7.1L-9.2 -14.3Z" fill="#297EA6"></path></g><g transform="translate(1138 573)"><path d="M0 -20L10.8 -16.8L18.2 -8.3L19.8 2.8L15.1 13.1L5.6 19.2L-5.6 19.2L-15.1 13.1L-19.8 2.8L-18.2 -8.3L-10.8 -16.8Z" fill="#297EA6"></path></g><g transform="translate(783 97)"><path d="M0 -46L24.9 -38.7L41.8 -19.1L45.5 6.5L34.8 30.1L13 44.1L-13 44.1L-34.8 30.1L-45.5 6.5L-41.8 -19.1L-24.9 -38.7Z" fill="#297EA6"></path></g><g transform="translate(558 124)"><path d="M0 -56L30.3 -47.1L50.9 -23.3L55.4 8L42.3 36.7L15.8 53.7L-15.8 53.7L-42.3 36.7L-55.4 8L-50.9 -23.3L-30.3 -47.1Z" fill="#297EA6"></path></g><g transform="translate(346 135)"><path d="M0 -28L15.1 -23.6L25.5 -11.6L27.7 4L21.2 18.3L7.9 26.9L-7.9 26.9L-21.2 18.3L-27.7 4L-25.5 -11.6L-15.1 -23.6Z" fill="#297EA6"></path></g><g transform="translate(66 578)"><path d="M0 -58L31.4 -48.8L52.8 -24.1L57.4 8.3L43.8 38L16.3 55.7L-16.3 55.7L-43.8 38L-57.4 8.3L-52.8 -24.1L-31.4 -48.8Z" fill="#297EA6"></path></g><g transform="translate(1187 34)"><path d="M0 -61L33 -51.3L55.5 -25.3L60.4 8.7L46.1 39.9L17.2 58.5L-17.2 58.5L-46.1 39.9L-60.4 8.7L-55.5 -25.3L-33 -51.3Z" fill="#297EA6"></path></g><g transform="translate(617 625)"><path d="M0 -35L18.9 -29.4L31.8 -14.5L34.6 5L26.5 22.9L9.9 33.6L-9.9 33.6L-26.5 22.9L-34.6 5L-31.8 -14.5L-18.9 -29.4Z" fill="#297EA6"></path></g><g transform="translate(531 382)"><path d="M0 -51L27.6 -42.9L46.4 -21.2L50.5 7.3L38.5 33.4L14.4 48.9L-14.4 48.9L-38.5 33.4L-50.5 7.3L-46.4 -21.2L-27.6 -42.9Z" fill="#297EA6"></path></g><g transform="translate(175 418)"><path d="M0 -56L30.3 -47.1L50.9 -23.3L55.4 8L42.3 36.7L15.8 53.7L-15.8 53.7L-42.3 36.7L-55.4 8L-50.9 -23.3L-30.3 -47.1Z" fill="#297EA6"></path></g><g transform="translate(889 170)"><path d="M0 -20L10.8 -16.8L18.2 -8.3L19.8 2.8L15.1 13.1L5.6 19.2L-5.6 19.2L-15.1 13.1L-19.8 2.8L-18.2 -8.3L-10.8 -16.8Z" fill="#297EA6"></path></g><g transform="translate(1010 618)"><path d="M0 -38L20.5 -32L34.6 -15.8L37.6 5.4L28.7 24.9L10.7 36.5L-10.7 36.5L-28.7 24.9L-37.6 5.4L-34.6 -15.8L-20.5 -32Z" fill="#297EA6"></path></g><g transform="translate(752 350)"><path d="M0 -57L30.8 -48L51.8 -23.7L56.4 8.1L43.1 37.3L16.1 54.7L-16.1 54.7L-43.1 37.3L-56.4 8.1L-51.8 -23.7L-30.8 -48Z" fill="#297EA6"></path></g></g></svg>